<?xml version="1.0" standalone="no"?>
<!DOCTYPE svg PUBLIC "-//W3C//DTD SVG 20010904//EN"
 "http://www.w3.org/TR/2001/REC-SVG-20010904/DTD/svg10.dtd">
<svg version="1.0" xmlns="http://www.w3.org/2000/svg"
 width="300.000000pt" height="300.000000pt" viewBox="0 0 300.000000 300.000000"
 preserveAspectRatio="xMidYMid meet">
<metadata>
Created by potrace 1.11, written by Peter Selinger 2001-2013
</metadata>
<g transform="translate(0.000000,300.000000) scale(0.100000,-0.100000)"
fill="#000000" stroke="none">
<path d="M0 1500 l0 -1500 1500 0 1500 0 0 1500 0 1500 -1500 0 -1500 0 0
-1500z m2250 0 l0 -750 -750 0 -750 0 0 750 0 750 750 0 750 0 0 -750z"/>
<path d="M1084 2096 c-262 -86 -286 -445 -38 -567 70 -34 188 -34 258 0 63 31
116 84 147 147 34 70 34 188 0 258 -31 63 -84 116 -145 146 -59 28 -163 36
-222 16z"/>
<path d="M1667 1859 c-74 -39 -114 -142 -87 -223 50 -154 255 -183 341 -48 16
25 32 61 35 80 13 69 -44 170 -113 198 -47 20 -131 17 -176 -7z"/>
<path d="M990 1130 l0 -70 590 0 590 0 0 70 0 70 -590 0 -590 0 0 -70z"/>
</g>
</svg>
